<svg width="1080" height="1080" viewBox="0 0 1080 1080" fill="none" xmlns="http://www.w3.org/2000/svg">
<path d="M978.987 538.793C978.987 803.378 782.209 1017.42 540 1017.42C297.791 1017.42 101.013 803.378 101.013 538.793C101.013 274.208 297.791 60.168 540 60.168C782.209 60.168 978.987 274.208 978.987 538.793Z" fill="#F2CCA2" stroke="black" stroke-width="6"/>
<path d="M640.867 940.888C637.321 940.888 634.054 940.002 631.067 938.228C628.174 936.455 625.841 934.122 624.067 931.228C622.294 928.242 621.407 924.975 621.407 921.428V859.548C621.407 856.002 622.294 852.782 624.067 849.888C625.841 846.902 628.174 844.522 631.067 842.748C634.054 840.975 637.321 840.088 640.867 840.088H721.927V858.708H644.787C643.294 858.708 642.081 859.128 641.147 859.968C640.307 860.808 639.887 862.022 639.887 863.608V917.368C639.887 918.862 640.307 920.075 641.147 921.008C642.081 921.848 643.294 922.268 644.787 922.268H721.927V940.888H640.867Z" fill="black"/>
<path d="M509.75 964.888C506.203 964.888 502.937 964.002 499.95 962.228C497.057 960.455 494.723 958.122 492.95 955.228C491.177 952.242 490.29 948.975 490.29 945.428V883.548C490.29 880.002 491.177 876.782 492.95 873.888C494.723 870.902 497.057 868.522 499.95 866.748C502.937 864.975 506.203 864.088 509.75 864.088H590.81V882.708H513.67C512.177 882.708 510.963 883.128 510.03 883.968C509.19 884.808 508.77 886.022 508.77 887.608V941.368C508.77 942.862 509.19 944.075 510.03 945.008C510.963 945.848 512.177 946.268 513.67 946.268H590.81V964.888H509.75Z" fill="black"/>
<path d="M377.532 940.888C373.986 940.888 370.719 940.002 367.732 938.228C364.839 936.455 362.506 934.122 360.732 931.228C358.959 928.242 358.072 924.975 358.072 921.428V840.088H376.552V920.588C376.552 921.055 376.692 921.475 376.972 921.848C377.346 922.128 377.766 922.268 378.232 922.268H438.432C438.899 922.268 439.319 922.128 439.692 921.848C440.066 921.475 440.252 921.055 440.252 920.588V840.088H458.872V921.428C458.872 924.975 457.986 928.242 456.212 931.228C454.439 934.122 452.059 936.455 449.072 938.228C446.179 940.002 442.959 940.888 439.412 940.888H377.532Z" fill="black"/>
<path fill-rule="evenodd" clip-rule="evenodd" d="M163.162 91.3052C162.593 87.7997 162.908 86.5246 164.672 85.1892C167.279 83.2163 172.403 82.9093 174.118 84.6236C174.776 85.2825 179.797 86.0181 185.275 86.2589C195.782 86.7206 202.446 88.6309 210.96 93.6206C214.979 95.9761 216.773 98.0967 218.997 103.126L221.861 109.601L226.849 108.79C229.593 108.344 232.343 107.502 232.96 106.92C233.577 106.338 235.244 105.861 236.663 105.861C240.627 105.861 257.454 111.8 260.71 114.348C262.912 116.07 264.66 116.437 268.001 115.871C273.268 114.982 276.26 116.395 281.27 122.143C283.305 124.477 286.739 128.278 288.901 130.588C291.063 132.898 294.199 136.797 295.869 139.251C298.733 143.455 298.831 144.071 297.555 149.878C294.294 164.725 302.53 169.898 313.515 159.902C316.898 156.825 318.137 157.807 319.022 164.267C319.424 167.202 321.088 172.238 322.72 175.457C325.908 181.748 329.797 183.773 338.692 183.774C339.311 183.775 339.879 183.757 340.429 183.7L346.284 189.311C344.578 191.302 343.389 192.413 343.008 193.753C342.226 196.502 344.843 200.218 353.365 214.486C357.046 220.649 357.991 223.439 358.16 228.654C358.398 235.981 359.562 240.461 361.231 240.461C361.851 240.461 364.435 239.086 366.976 237.404C371.643 234.316 375.91 234.304 377.933 237.374C379.447 239.671 378.882 245.533 376.383 253.449C374.165 260.475 374.084 261.92 375.419 270.569C376.278 276.135 378.068 282.101 379.776 285.094C382.434 289.752 382.611 290.977 381.911 299.853C381.169 309.252 380.912 312.19 381.885 314.639C382.355 315.823 383.113 316.892 384.243 318.522C387.421 323.109 387.582 325.422 385.265 333.338C384.713 335.227 385.565 337.033 388.538 340.277C392.125 344.191 392.816 344.501 394.967 343.157C399.384 340.399 400.188 337.397 400.907 320.972C401.58 305.599 401.782 304.576 405.018 300.024L408.42 295.237L406.079 287.627C401.077 271.372 401.512 267.349 408.435 265.828C411.61 265.131 411.896 264.648 411.896 259.977C411.896 255.162 412.145 254.787 416.497 253.045C419.027 252.032 422.176 249.689 423.494 247.838C427.045 242.851 436.948 237.835 442.318 238.306C446.592 238.679 446.753 238.548 448.348 233.377C450.772 225.52 451.445 224.539 454.537 224.343C456.086 224.244 457.965 224.112 458.713 224.048C459.462 223.983 460.608 222.398 461.261 220.524C462.207 217.812 462.004 216.383 460.266 213.526C459.065 211.55 457.726 208.037 457.292 205.717C456.55 201.767 456.693 201.498 459.538 201.498C461.209 201.498 466.6 202.775 471.519 204.337L480.462 207.177L483.931 204.258C487.203 201.505 487.585 201.442 490.677 203.152C500.685 208.687 507.443 211.395 512.454 211.876C517.553 212.366 518.202 212.142 519.42 209.468C520.361 207.401 520.399 205.837 519.544 204.241C517.812 201.004 519.629 198.657 523.175 199.546C526.187 200.303 529.556 203.365 536.487 211.645C539.254 214.948 544.933 218.861 554.436 224.009C564.721 229.581 570.839 233.889 577.944 240.566C583.374 245.668 590.147 250.766 593.523 252.292C599.388 254.942 599.661 255.304 608.59 272.226C613.593 281.704 618.744 291.582 620.04 294.174C622.693 299.489 624.518 301.229 630.031 303.708C633.748 305.377 633.868 305.656 633.868 312.582C633.868 317.801 634.81 322.023 637.355 328.211C639.272 332.874 641.63 340.142 642.595 344.363C644.606 353.17 651.869 369.668 655.459 373.585C658.581 376.992 661.677 376.965 663.942 373.509C665.512 371.112 665.529 369.989 664.074 364.358C662.185 357.045 661.841 332.486 663.565 327.952C664.182 326.328 664.749 319.787 664.824 313.417C664.928 304.476 665.448 301.032 667.106 298.305C669.748 293.961 671.881 293.851 675.606 297.869C679.311 301.865 685.819 314.813 685.819 318.189C685.819 319.626 687.873 323.048 690.383 325.793C692.895 328.539 695.88 332.644 697.017 334.917C700.16 341.196 704.604 346.695 708.405 349.005C711.257 350.74 713.759 350.994 723.453 350.526C736.569 349.895 748.904 351.634 755.626 355.064C758.111 356.332 762.761 359.692 765.958 362.532C775.673 371.16 778.986 368.84 788.547 346.708C792.554 337.432 794.265 334.711 796.431 334.168C799.195 333.473 802.708 335.362 802.708 337.54C802.708 338.174 803.452 340.367 804.363 342.414C806.644 347.545 808.852 360.176 808.83 367.977C808.808 375.888 805.834 389.304 802.021 398.688C798.444 407.492 799.118 417.038 804.077 427.794C805.922 431.795 807.431 436.153 807.431 437.479C807.431 438.804 808.032 441.209 808.768 442.822C810.893 447.488 805.308 456.062 798.162 459.105C783.017 465.553 780.464 467.149 774.927 473.63C768.019 481.715 763.955 483.983 755.59 484.423C749.782 484.727 748.591 484.326 742.401 479.983L735.595 475.21L729.054 476.674C720.086 478.681 714.397 476.383 703.616 466.403C695.066 458.486 692.55 457.647 689.953 461.843C687.732 465.432 690.356 478.982 694.007 482.774C695.55 484.378 697.969 487.763 699.384 490.297C702.133 495.22 705.909 496.747 708.997 494.184C711.733 491.913 713.078 495.015 712.224 501.622C711.536 506.948 711.661 507.254 715.489 509.587C722.829 514.062 729.87 512.297 731.68 505.528C732.2 503.58 733.478 501.823 734.519 501.622C736.112 501.315 736.472 502.842 736.796 511.259L737.179 521.262L732.834 524.904C730.444 526.909 725.807 530.215 722.531 532.252C717.526 535.363 715.783 535.849 711.634 535.293C701.917 533.99 694.632 521.465 691.18 500.131C690.192 494.023 688.389 487.705 686.983 485.431C684.407 481.262 677.999 476.602 674.844 476.602C672.17 476.602 668.108 482.297 668.108 486.047C668.108 490.395 664.16 495.135 659.729 496.108C657.734 496.546 653.72 499.186 650.811 501.975C645.832 506.744 645.569 507.313 646.342 511.6C646.794 514.106 648.198 518.28 649.461 520.878C652.237 526.583 652.36 532.43 649.858 539.801C648.497 543.81 647.839 551.639 647.445 568.516C647.146 581.278 646.654 593.049 646.349 594.672C644.146 606.412 643.619 635.691 645.101 664.09C646.31 687.282 647.087 688.297 668.215 694.329C673.358 695.798 676.487 697.795 682.383 703.37C686.546 707.305 690.846 711.024 691.941 711.634C692.626 712.015 693.345 712.212 694.19 712.18L695.818 719.503C695.101 720.992 694.985 722.571 695.07 724.736C695.359 732.132 693.229 738.653 690.139 739.828C688.683 740.38 686.786 741.686 685.92 742.727C683.469 745.681 682.277 744.98 682.277 740.586C682.277 735.918 681.291 732.814 679.809 732.814C679.24 732.814 677.429 735.471 675.783 738.718C672.083 746.019 669.289 746.556 669.289 739.968C669.289 733.486 667.442 733.011 662.826 738.309L658.868 742.85L656.358 740.194C655.444 739.226 654.338 738.527 653.077 738.089L651.072 733.135C654.268 730.929 655.986 727.463 653.461 724.672C650.175 721.041 647.339 720.955 644.14 724.389C639.577 729.287 638.017 732.906 639.945 734.127C640.31 734.358 640.689 734.554 641.08 734.715V739.685C638.568 740.858 635.943 742.501 633.307 744.596C629.597 747.546 627.868 748.188 625.042 747.663C622.81 747.248 620.142 747.734 617.928 748.958C616.213 749.906 612.711 750.79 609.682 751.08L610.136 750.882L611.993 743.25L611.843 743.212C613.482 740.96 614.201 737.935 613.37 735.768C611.824 731.74 602.989 735.573 600.363 740.301L597.346 739.536L597.319 739.559C599.978 734.43 599.894 733.988 598.058 731.185C595.494 727.272 594.697 727.309 588.411 731.633C585.58 733.582 582.922 735.176 582.505 735.176C582.088 735.176 582.117 732.219 582.568 728.606C583.067 724.611 582.811 719.318 581.915 715.091C580.544 708.633 580.667 707.346 583.65 696.828C586.621 686.356 586.724 685.299 585.019 682.697C584.005 681.15 582.611 676.253 581.923 671.813C579.701 657.491 572.352 611.937 571.478 607.069C570.766 603.099 569.912 602.007 566.113 600.212C562.121 598.326 561.681 597.708 562.328 594.899C564.567 585.185 564.47 578.374 561.994 571.218C560.614 567.229 559.484 563.01 559.484 561.844C559.484 560.677 559.024 559.218 558.464 558.602C556.164 556.071 552.407 541.773 552.31 535.182C552.291 533.958 551.032 531.301 549.511 529.279C546.508 525.283 545.528 519.863 544.792 503.168C544.534 497.323 543.959 491.611 543.512 490.475C542.577 488.095 539.354 487.758 537.286 489.826C536.419 490.693 535.87 494.934 535.87 500.771C535.87 506.745 534.968 513.553 533.453 519.022C532.123 523.82 529.797 533.964 528.285 541.564C526.164 552.22 523.762 559.408 517.792 572.961C513.534 582.63 509.774 591.868 509.435 593.491C508.156 599.633 502.692 624.979 501.653 629.589C500.992 632.523 501 639.893 501.674 648.48C505.182 693.204 507.429 707.403 512.114 714.433C515.837 720.02 519.701 721.359 529.493 720.459C535.624 719.896 537.16 720.163 539.827 722.261C545.202 726.489 553.245 738.907 554.147 744.372C554.77 748.142 555.896 750.455 558.046 751.589L556.975 758.775C556.49 759.141 556.082 759.61 555.685 760.206L553.962 762.803L550.615 760.171L547.27 757.539L543.359 761.331C541.208 763.416 539.245 764.893 538.998 764.613C538.753 764.332 537.912 762.876 537.131 761.375C534.95 757.186 529.905 758.272 527.467 763.455L525.55 767.53L523.595 763.75C521.404 759.513 521.303 759.469 517.97 761.253C516.035 762.288 515.063 762.054 512.914 760.035C512.529 759.674 512.014 759.321 511.399 758.984L508.973 751.856C509.6 751.638 510.074 751.357 510.418 751.012C512.792 748.639 511.27 746.391 506.621 745.399C501.693 744.348 496.035 740.379 494.082 736.602C493.115 734.733 491.462 728.2 490.41 722.086C489.357 715.973 487.775 708.58 486.892 705.658C486.01 702.736 484.435 696.891 483.393 692.67C478.771 673.943 473.933 659.615 470.43 654.268C466.163 647.755 467.033 636.53 472.82 623.445C474.399 619.875 476.283 612.968 477.008 608.094C478.505 598.03 477.577 595.676 473.446 599.052C471.933 600.289 470.557 603.127 470.129 605.889C469.729 608.486 467.083 616.304 464.251 623.261C461.418 630.219 458.334 639.783 457.398 644.514C456.461 649.245 454.931 656.648 453.997 660.964C452.849 666.27 452.615 670.5 453.274 674.031C453.811 676.902 454.094 685.591 453.905 693.34C453.716 701.089 454.03 710.505 454.604 714.265C455.322 718.962 455.21 722.564 454.248 725.777C453.168 729.38 453.167 731.523 454.244 735.117C456.563 742.857 464.103 746.774 482.533 749.809C484.213 750.086 485.8 750.34 487.299 750.572L492.315 759.433C492.2 761.315 492.971 764.206 494.717 769.378C496.968 776.039 497.104 777.681 495.929 783.996C494.354 792.469 489.149 803.656 486.783 803.656C485.474 803.656 485.099 801.672 485.099 794.723C485.099 785.654 483.823 781.223 481.209 781.223C478.568 781.223 476.557 786.274 476.224 793.748C475.736 804.674 473.374 806.965 470.265 799.524C469.315 797.251 468.284 795.391 467.972 795.391C467.662 795.391 466.474 797.345 465.332 799.734C462.609 805.43 460.305 806.174 460.305 801.356C460.305 796.853 458.293 795.916 453.733 798.294C446.893 801.861 445.28 800.216 450.965 795.469C453.486 793.364 454.896 790.88 455.528 787.425C456.597 781.573 455.597 780.348 449.787 780.4C443.449 780.457 440.233 775.876 440.233 766.79C440.233 762.821 439.642 756.183 438.921 752.038C438.305 748.503 437.825 746.288 436.599 744.611L434.501 732.987C435.864 731.063 434.92 725.028 431.965 717.465C430.825 714.543 429.264 707.416 428.499 701.627C427.733 695.839 426.355 689.651 425.439 687.878C424.521 686.104 423.44 682.339 423.036 679.511C422.632 676.684 421.345 671.713 420.175 668.466C419.005 665.219 417.442 659.961 416.701 656.783C415.961 653.604 414.312 649.538 413.035 647.746C408.974 642.042 410.059 638.555 417.483 633.447C423.621 629.223 426.795 623.117 427.948 613.314L428.718 606.759L424.343 605.315C420.409 604.016 420.046 603.556 420.75 600.749C421.8 596.567 422.037 596.434 425.558 598.037C429.43 599.802 431.161 598.734 430.452 595.017C430.145 593.411 430.425 590.365 431.074 588.249C432.575 583.358 429.813 578.635 424.81 577.535C422.918 577.12 421.09 576.33 420.75 575.78C420.41 575.229 422.035 570.453 424.359 565.166C429.011 554.586 428.669 552.167 422.522 552.167C418.464 552.167 417.321 550.779 415.059 543.109C413.086 536.418 411.529 533.109 409.223 530.711C408.394 529.849 405.665 526.322 403.16 522.875L398.605 516.606L400.465 511.868C402.758 506.031 401.915 503.535 395.583 497.423C392.584 494.528 390.571 491.35 390.08 488.731C389.596 486.148 387.72 483.15 385.069 480.721C379.737 475.837 379.686 472.325 384.8 462.498C389.604 453.269 389.383 445.306 384.106 437.414C381.1 432.92 380.696 431.254 380.654 423.16C380.608 414.304 380.473 413.867 376.639 410.284C374.456 408.244 371.191 403.337 369.383 399.378C364.29 388.224 354.402 377.439 347.296 375.289C344.837 374.544 338.122 370.204 332.376 365.643C326.628 361.083 321.488 357.351 320.953 357.351C316.574 357.351 302.09 336.341 302.09 329.988C302.09 327.652 302.972 326.361 305.337 325.232C307.891 324.015 308.662 322.74 308.952 319.255C309.197 316.289 308.774 314.617 307.673 314.195C306.071 313.58 298.768 314.928 294.802 316.572C292.729 317.43 289.498 314.516 273.514 297.363C269.161 292.692 264.815 288.87 263.855 288.87C263.8 288.87 263.741 288.882 263.678 288.905L256.043 278.793C256.043 278.771 256.043 278.749 256.043 278.726C256.043 274.186 254.402 272.976 245.71 271.112C240.014 269.89 239.849 269.727 235.878 261.432C233.656 256.79 229.828 250.307 227.371 247.022C222.234 240.156 222.159 239.897 221.334 225.702C220.762 215.871 220.47 214.872 217.422 212.344C215.61 210.841 212.4 208.124 210.286 206.307L206.444 203.001L208.22 197.969C209.196 195.201 209.996 192.509 209.996 191.989C209.996 189.766 206.031 187.407 200.254 186.192C196.845 185.475 192.781 183.912 191.221 182.722C188.65 180.758 188.396 179.725 188.48 171.572C188.594 160.575 187.764 159.382 175.825 153.376C164.095 147.475 163.661 146.549 169.141 139.086C175.184 130.853 174.723 127.785 166.644 122.472C161.025 118.777 160.372 117.875 159.19 112.184C157.989 106.401 158.113 105.575 160.888 100.839C163.234 96.8357 163.725 94.7765 163.162 91.3052ZM728.59 411.28C725.716 405.203 713.754 392.464 709.01 390.428C703.787 388.186 696.692 387.119 691.47 387.787C687.238 388.329 682.041 394.53 682.509 398.477C682.823 401.123 684.289 402.027 694.492 405.873C700.886 408.281 709.653 412.665 713.974 415.614C720.137 419.818 722.533 420.831 725.09 420.31C728.858 419.544 730.497 415.315 728.59 411.28ZM788.54 421.574C788.54 418.081 785.144 413.965 780.749 412.128C775.137 409.783 770.468 410.088 766.709 413.046C763.108 415.878 757.694 426.436 758.614 428.833C758.936 429.671 761.365 431.79 764.011 433.541C768.426 436.462 769.2 436.612 773.409 435.351C778.812 433.733 788.54 424.875 788.54 421.574ZM722.233 444.148C719.967 440.909 716.558 437.359 714.659 436.259C707.334 432.021 702.502 432.486 696.74 437.982C693.93 440.663 692.903 442.684 692.903 445.529C692.903 448.827 694.465 451.002 703.234 459.908C718.095 475.002 722.899 476.996 728.989 470.597C730.896 468.593 733.387 466.449 734.523 465.832C737.558 464.185 741.312 466.604 741.312 470.206C741.312 474.635 746.602 478.963 752.014 478.963C758.646 478.963 759.659 478.271 766.225 469.244L772.253 460.954L769.232 458.151C765.793 454.963 763.3 454.772 750.501 456.72C736.335 458.876 730.823 456.425 722.233 444.148ZM753.119 445.43C753.119 442.979 747.266 439.628 741.312 438.67C738.39 438.201 733.751 437.441 731.002 436.984C725.109 436.003 723.627 437.903 725.936 443.478C728.064 448.617 730.775 450.507 739.008 452.597L746.468 454.491L749.794 450.769C751.623 448.722 753.119 446.319 753.119 445.43ZM807.587 478.374C798.098 476.958 786.817 471.312 789.797 469.47C790.711 468.905 793.12 469.265 795.562 470.332C797.869 471.339 801.616 472.557 803.889 473.037C814.488 475.277 817.677 479.879 807.587 478.374ZM790.901 485.155C785.848 483.071 782.637 480.334 782.637 478.111C782.637 476.034 785.004 476.722 796.316 482.083C800.917 484.263 805.9 486.047 807.389 486.047C810.546 486.047 823.878 493.356 821.916 494.01C820.503 494.481 797.809 488.001 790.901 485.155ZM768.22 489.182C769.415 489.495 771.288 488.678 772.534 487.301C773.746 485.962 775.147 484.867 775.649 484.867C779.223 484.867 793.628 509.769 791.363 512.033C790.433 512.964 788.725 511.258 785.21 505.883C776.261 492.199 770.983 488.488 771.801 496.455C772.871 506.863 768.068 507.936 766.264 497.693C764.845 489.64 765.136 488.376 768.22 489.182ZM618.09 563.383C616.886 544.108 608.726 506.759 604.76 502.378C599.82 496.919 595.616 501.662 592.972 515.677C590.945 526.424 591.265 529.967 597.302 563.679C597.97 567.413 598.772 574.097 599.083 578.533C599.394 582.97 600.439 591.471 601.405 597.424C602.37 603.378 603.163 610.516 603.165 613.285C603.167 616.053 603.686 619.241 604.317 620.369C605.879 623.158 609.053 644.675 608.318 647.488C607.992 648.732 608.891 652.898 610.316 656.746C613.317 664.852 613.759 667.783 614.402 683.815C615.027 699.409 615.664 702.421 618.742 704.343C621.049 705.783 621.554 705.673 623.465 703.314C625.834 700.389 626.317 693.857 624.312 691.852C623.603 691.142 622.843 686.388 622.623 681.285C622.403 676.183 621.863 666.164 621.42 659.02C620.404 642.624 620.37 633.468 621.309 629.726C622.377 625.468 620.109 615.047 617.351 611.541C614.344 607.718 614.176 597.602 616.902 584.467C618.329 577.597 618.637 572.128 618.09 563.383ZM718.563 514.639C715.165 513.156 710.334 510.102 707.827 507.85C703.711 504.155 698.746 502.382 698.846 504.643C698.867 505.131 699.848 508.32 701.026 511.73C705.594 524.954 714.602 529.134 722.713 521.793C725.96 518.854 725.194 517.533 718.563 514.639Z" fill="black"/>
</svg>
